<svg version="1.1" xmlns="http://www.w3.org/2000/svg" viewBox="0 0 1320.0634870453778 1204.5589710838308" width="3960.1904611361333" height="3613.6769132514924">
  <!-- svg-source:excalidraw -->
  
  <defs>
    <style class="style-fonts">
      
    </style>
    
  </defs>
  <g transform="translate(502.6890357136035 72.7852835874146) rotate(0 157.34270780908537 529.4942019545008)" stroke="none"><path fill="#1e1e1e" d="M 0.73,1.37 Q 0.73,1.37 -2.56,3.11 -5.86,4.84 -10.12,7.61 -14.38,10.37 -35.07,24.30 -55.76,38.24 -81.63,57.42 -107.49,76.61 -141.62,102.11 -175.75,127.60 -212.26,156.15 -248.77,184.70 -284.89,213.32 -321.00,241.93 -347.90,263.47 -374.80,285.00 -397.71,302.83 -420.62,320.67 -435.13,331.89 -449.65,343.12 -459.86,350.48 -470.07,357.83 -475.86,362.14 -481.66,366.45 -484.59,368.75 -487.52,371.05 -488.62,372.19 -489.73,373.34 -488.94,372.28 -488.16,371.22 -486.41,370.34 -484.65,369.45 -482.54,368.03 -480.43,366.61 -476.82,363.67 -473.22,360.73 -468.02,356.51 -462.82,352.28 -453.07,343.79 -443.32,335.29 -427.73,322.42 -412.15,309.54 -378.36,283.38 -344.57,257.23 -305.63,229.49 -266.70,201.74 -224.39,173.77 -182.08,145.80 -140.34,121.35 -98.60,96.90 -67.13,80.38 -35.67,63.87 -13.28,53.01 9.09,42.16 25.31,35.43 41.53,28.70 51.38,25.18 61.23,21.67 66.50,19.88 71.78,18.10 74.53,17.33 77.27,16.57 78.17,16.12 79.07,15.68 79.26,15.65 79.44,15.62 79.63,15.64 79.82,15.65 80.00,15.72 80.18,15.78 80.34,15.88 80.50,15.98 80.63,16.12 80.76,16.26 80.85,16.42 80.95,16.59 81.00,16.77 81.05,16.96 81.05,17.15 81.06,17.34 81.02,17.52 80.98,17.71 80.90,17.88 80.81,18.05 80.69,18.19 80.57,18.34 80.42,18.45 80.27,18.56 80.09,18.64 79.91,18.71 77.83,18.52 75.74,18.34 71.85,19.91 67.95,21.47 58.97,27.19 49.98,32.90 35.80,43.08 21.63,53.26 -6.84,75.77 -35.31,98.27 -65.63,123.98 -95.96,149.69 -143.46,192.51 -190.96,235.34 -230.06,272.44 -269.16,309.55 -306.06,346.28 -342.95,383.02 -368.88,410.47 -394.81,437.93 -412.98,457.10 -431.14,476.27 -443.89,489.83 -456.64,503.39 -464.96,512.12 -473.28,520.85 -477.31,525.31 -481.33,529.76 -483.03,531.87 -484.72,533.97 -484.91,534.41 -485.09,534.85 -485.22,534.97 -485.35,535.10 -485.51,535.19 -485.66,535.28 -485.83,535.33 -486.01,535.38 -486.19,535.39 -486.37,535.40 -486.54,535.37 -486.72,535.33 -486.88,535.26 -487.04,535.18 -487.18,535.07 -487.32,534.96 -487.43,534.81 -487.54,534.67 -487.61,534.50 -487.69,534.34 -487.72,534.16 -487.75,533.99 -487.73,533.81 -487.72,533.63 -487.66,533.46 -487.61,533.29 -487.51,533.13 -487.42,532.98 -484.70,530.43 -481.99,527.88 -473.52,518.44 -465.06,509.01 -455.17,499.27 -445.28,489.54 -405.49,450.52 -365.69,411.50 -319.91,370.07 -274.13,328.65 -230.93,291.62 -187.73,254.60 -140.22,217.59 -92.71,180.57 -47.49,147.19 -2.27,113.80 31.32,91.43 64.91,69.07 90.59,53.43 116.28,37.79 135.44,27.43 154.60,17.07 166.73,11.17 178.86,5.28 186.33,2.18 193.80,-0.90 197.43,-2.21 201.07,-3.52 201.22,-3.56 201.37,-3.60 201.53,-3.61 201.69,-3.61 201.84,-3.58 202.00,-3.55 202.14,-3.48 202.28,-3.41 202.40,-3.31 202.53,-3.20 202.62,-3.08 202.71,-2.95 202.77,-2.80 202.84,-2.66 202.86,-2.50 202.88,-2.34 202.87,-2.19 202.85,-2.03 202.80,-1.88 202.75,-1.73 202.66,-1.60 202.58,-1.46 202.46,-1.35 202.35,-1.25 202.21,-1.17 202.07,-1.09 199.14,2.47 196.20,6.04 186.41,14.88 176.63,23.72 166.23,33.14 155.83,42.56 106.62,93.77 57.41,144.97 18.06,187.33 -21.28,229.69 -62.83,275.71 -104.38,321.73 -142.25,366.76 -180.13,411.79 -209.07,446.91 -238.01,482.03 -259.07,506.73 -280.14,531.43 -295.87,550.17 -311.60,568.90 -321.24,580.55 -330.89,592.19 -336.17,598.33 -341.46,604.46 -344.19,607.54 -346.92,610.62 -348.01,612.15 -349.10,613.68 -349.51,614.19 -349.91,614.69 -350.05,614.83 -350.18,614.97 -350.35,615.07 -350.51,615.18 -350.70,615.24 -350.88,615.30 -351.08,615.32 -351.27,615.33 -351.46,615.30 -351.65,615.27 -351.83,615.20 -352.01,615.12 -352.17,615.00 -352.32,614.89 -352.45,614.74 -352.57,614.58 -352.65,614.41 -352.74,614.23 -352.78,614.04 -352.82,613.85 -352.81,613.66 -352.80,613.46 -352.75,613.28 -352.69,613.09 -352.60,612.92 -352.50,612.75 -348.48,607.56 -344.46,602.37 -334.00,591.28 -323.54,580.19 -298.86,554.44 -274.17,528.70 -236.42,491.32 -198.66,453.94 -132.09,387.55 -65.51,321.15 -1.58,259.96 62.34,198.77 111.81,152.73 161.28,106.70 200.64,72.66 240.01,38.63 268.11,16.14 296.22,-6.34 316.66,-21.18 337.11,-36.03 349.70,-43.79 362.28,-51.55 368.69,-55.12 375.09,-58.68 378.31,-60.21 381.54,-61.75 382.83,-62.04 384.12,-62.34 384.30,-62.40 384.48,-62.45 384.66,-62.47 384.85,-62.48 385.04,-62.45 385.22,-62.42 385.39,-62.35 385.57,-62.28 385.72,-62.17 385.87,-62.05 385.98,-61.91 386.10,-61.76 386.18,-61.59 386.26,-61.42 386.30,-61.24 386.34,-61.06 386.33,-60.87 386.32,-60.68 386.27,-60.50 386.22,-60.32 386.13,-60.16 386.03,-60.00 385.90,-59.86 385.77,-59.73 385.61,-59.63 385.46,-59.53 384.10,-57.80 382.74,-56.07 379.30,-52.77 375.87,-49.47 369.58,-44.03 363.30,-38.60 351.90,-27.56 340.50,-16.52 325.32,-0.93 310.14,14.64 283.39,45.32 256.64,76.00 221.27,117.89 185.90,159.78 151.20,202.30 116.50,244.82 78.53,292.51 40.56,340.20 10.87,377.45 -18.82,414.71 -39.83,441.90 -60.84,469.08 -76.36,490.32 -91.88,511.56 -102.65,527.01 -113.43,542.46 -118.55,550.39 -123.67,558.32 -126.09,562.17 -128.51,566.01 -129.54,568.12 -130.57,570.23 -130.67,570.36 -130.77,570.48 -130.90,570.57 -131.02,570.67 -131.17,570.73 -131.31,570.80 -131.47,570.82 -131.63,570.85 -131.78,570.83 -131.94,570.82 -132.09,570.77 -132.24,570.72 -132.38,570.64 -132.51,570.55 -132.62,570.44 -132.73,570.33 -132.81,570.19 -132.89,570.05 -132.93,569.90 -132.98,569.75 -132.99,569.59 -132.99,569.43 -132.96,569.28 -132.93,569.12 -132.86,568.98 -132.79,568.84 -131.25,566.90 -129.70,564.97 -121.74,556.41 -113.78,547.84 -97.28,531.08 -80.78,514.32 -42.45,477.96 -4.12,441.60 41.27,402.04 86.67,362.48 133.52,322.83 180.37,283.18 218.18,252.97 255.99,222.76 284.61,200.61 313.23,178.47 334.77,163.10 356.31,147.72 369.49,138.94 382.67,130.17 390.07,125.79 397.46,121.42 401.11,119.55 404.75,117.68 406.23,117.26 407.71,116.83 407.88,116.77 408.05,116.70 408.23,116.68 408.41,116.66 408.59,116.69 408.77,116.71 408.94,116.78 409.11,116.84 409.26,116.95 409.41,117.05 409.53,117.19 409.65,117.33 409.74,117.49 409.82,117.65 409.86,117.83 409.90,118.01 409.90,118.19 409.90,118.37 409.86,118.55 409.81,118.73 409.72,118.89 409.64,119.05 409.52,119.18 409.39,119.32 409.24,119.42 409.09,119.53 406.73,122.82 404.37,126.11 397.48,131.45 390.59,136.78 378.83,145.90 367.07,155.02 351.18,168.12 335.29,181.22 314.29,201.67 293.30,222.12 259.10,257.64 224.91,293.16 187.19,337.83 149.48,382.49 116.41,422.69 83.34,462.89 56.08,494.90 28.82,526.91 9.10,550.89 -10.60,574.86 -26.39,593.95 -42.17,613.03 -52.83,625.46 -63.49,637.88 -69.53,644.95 -75.58,652.02 -78.88,656.01 -82.19,660.00 -84.62,662.05 -87.05,664.10 -88.13,662.68 -89.20,661.27 -86.31,656.88 -83.42,652.49 -71.18,640.70 -58.94,628.91 -28.63,601.85 1.67,574.79 43.35,539.29 85.04,503.79 134.19,463.07 183.34,422.35 228.31,385.56 273.27,348.77 324.21,308.42 375.15,268.08 414.92,237.35 454.68,206.62 478.11,189.20 501.54,171.78 516.84,160.72 532.14,149.65 540.76,143.74 549.38,137.83 553.82,135.07 558.26,132.30 560.67,131.10 563.07,129.91 564.46,129.52 565.85,129.14 567.28,130.54 568.71,131.94 568.99,133.35 569.28,134.77 568.62,136.80 567.95,138.84 562.96,143.81 557.97,148.78 547.53,158.63 537.08,168.48 517.71,186.91 498.34,205.34 461.93,242.21 425.51,279.07 390.89,316.70 356.26,354.33 316.73,398.31 277.20,442.29 237.17,487.30 197.15,532.30 167.30,567.39 137.46,602.48 110.78,633.90 84.10,665.33 65.70,687.26 47.30,709.20 33.54,725.43 19.79,741.65 11.03,752.23 2.27,762.80 -2.79,768.66 -7.87,774.53 -10.25,777.47 -12.63,780.41 -13.55,781.31 -14.47,782.20 -14.60,782.33 -14.74,782.46 -14.90,782.56 -15.07,782.65 -15.25,782.71 -15.43,782.76 -15.62,782.77 -15.81,782.78 -15.99,782.74 -16.18,782.70 -16.35,782.62 -16.52,782.54 -16.67,782.42 -16.81,782.30 -16.93,782.15 -17.04,782.00 -17.12,781.83 -17.19,781.66 -17.22,781.47 -17.25,781.28 -17.24,781.10 -17.22,780.91 -17.17,780.73 -17.11,780.55 -17.01,780.39 -16.91,780.23 -17.44,779.30 -17.97,778.37 -13.77,771.37 -9.58,764.38 1.27,751.32 12.14,738.27 31.00,717.86 49.87,697.45 76.37,670.29 102.86,643.14 133.31,613.81 163.75,584.48 197.98,552.84 232.21,521.20 269.18,488.22 306.15,455.23 353.27,414.71 400.38,374.18 432.55,348.16 464.72,322.15 486.48,305.80 508.23,289.45 523.91,278.63 539.59,267.81 549.21,261.90 558.83,255.98 563.98,253.19 569.13,250.40 571.83,249.20 574.52,248.00 575.90,247.38 577.28,246.75 578.52,246.87 579.76,246.98 580.71,248.57 581.66,250.15 581.78,251.37 581.89,252.59 579.93,256.52 577.97,260.45 570.52,269.51 563.07,278.57 548.43,294.45 533.79,310.33 511.48,335.81 489.17,361.30 459.07,394.94 428.97,428.58 394.86,467.98 360.75,507.38 324.93,549.25 289.11,591.12 255.10,632.02 221.10,672.93 197.00,702.77 172.91,732.62 155.77,754.75 138.64,776.88 126.48,793.36 114.33,809.85 105.97,822.11 97.62,834.37 93.52,840.95 89.42,847.52 87.44,850.79 85.45,854.06 84.37,855.92 83.29,857.77 82.93,858.41 82.57,859.05 82.46,859.19 82.35,859.34 82.20,859.46 82.06,859.58 81.89,859.66 81.72,859.74 81.53,859.78 81.35,859.81 81.16,859.81 80.98,859.80 80.80,859.75 80.62,859.69 80.45,859.60 80.29,859.50 80.16,859.37 80.02,859.24 79.92,859.08 79.82,858.93 79.76,858.75 79.70,858.57 79.69,858.38 79.68,858.20 79.71,858.01 79.74,857.83 79.81,857.65 79.88,857.48 79.70,855.87 79.51,854.25 85.03,845.74 90.55,837.23 105.76,819.07 120.97,800.90 141.90,777.01 162.84,753.12 218.00,697.37 273.15,641.62 324.62,593.10 376.09,544.58 421.50,504.80 466.91,465.02 498.69,438.47 530.46,411.92 552.55,393.97 574.64,376.01 590.09,363.63 605.53,351.25 615.22,343.95 624.92,336.65 630.15,333.01 635.37,329.37 638.11,327.79 640.84,326.22 642.23,325.44 643.62,324.67 645.50,325.17 647.38,325.68 647.40,327.64 647.43,329.60 641.03,338.07 634.64,346.54 615.41,368.83 596.19,391.12 564.68,426.27 533.17,461.43 493.35,506.90 453.53,552.37 415.01,596.26 376.49,640.15 335.30,687.64 294.10,735.13 257.14,780.78 220.18,826.44 193.31,860.48 166.43,894.52 149.15,917.84 131.86,941.16 119.14,959.27 106.42,977.38 99.73,986.96 93.05,996.54 89.97,1001.07 86.89,1005.61 85.31,1007.59 83.72,1009.57 83.18,1009.99 82.63,1010.42 82.50,1010.55 82.37,1010.68 82.20,1010.78 82.04,1010.87 81.86,1010.93 81.68,1010.98 81.50,1010.99 81.31,1011.00 81.12,1010.97 80.94,1010.93 80.77,1010.85 80.60,1010.78 80.45,1010.66 80.30,1010.54 80.19,1010.39 80.07,1010.24 80.00,1010.07 79.92,1009.90 79.89,1009.72 79.86,1009.53 79.87,1009.34 79.88,1009.16 79.94,1008.98 80.00,1008.80 80.10,1008.64 80.19,1008.48 80.25,1005.60 80.31,1002.72 87.22,993.28 94.14,983.84 108.75,967.05 123.37,950.27 154.01,916.31 184.65,882.34 225.75,838.99 266.85,795.64 335.60,731.09 404.35,666.54 457.31,620.52 510.28,574.49 549.93,541.76 589.59,509.03 618.85,486.45 648.11,463.87 670.24,447.67 692.37,431.48 705.94,422.30 719.51,413.12 727.06,408.32 734.60,403.53 738.31,401.47 742.02,399.42 743.84,398.51 745.66,397.60 747.50,397.91 749.35,398.23 749.67,400.09 750.00,401.96 746.64,406.72 743.28,411.47 733.44,420.75 723.60,430.04 701.82,451.01 680.03,471.99 654.93,496.07 629.84,520.16 600.01,550.96 570.19,581.76 535.57,620.06 500.95,658.36 464.56,700.95 428.17,743.53 399.69,778.35 371.21,813.16 345.81,845.04 320.41,876.92 304.45,897.95 288.48,918.99 277.33,933.98 266.19,948.98 259.42,958.03 252.65,967.08 249.25,972.01 245.86,976.93 244.18,979.49 242.50,982.05 241.56,983.29 240.63,984.54 240.29,984.83 239.96,985.12 239.80,985.26 239.65,985.40 239.47,985.49 239.29,985.59 239.09,985.64 238.89,985.69 238.68,985.69 238.48,985.69 238.28,985.65 238.08,985.60 237.90,985.50 237.71,985.41 237.56,985.27 237.40,985.14 237.29,984.97 237.17,984.80 237.09,984.61 237.02,984.42 236.99,984.21 236.97,984.01 236.99,983.81 237.02,983.60 237.09,983.41 237.16,983.22 237.27,983.05 237.39,982.88 237.04,981.79 236.69,980.70 239.81,973.83 242.92,966.95 254.13,952.63 265.34,938.30 287.30,915.04 309.26,891.79 340.65,859.83 372.04,827.87 422.97,781.11 473.91,734.35 517.38,695.67 560.86,656.99 604.06,620.31 647.27,583.63 678.33,557.71 709.40,531.80 729.58,514.71 749.76,497.62 764.52,485.77 779.29,473.92 786.66,468.30 794.04,462.68 797.68,460.27 801.32,457.87 803.57,457.10 805.82,456.33 806.81,457.78 807.81,459.23 804.79,464.14 801.77,469.05 792.85,480.64 783.93,492.23 766.22,513.61 748.50,534.99 715.21,574.77 681.92,614.56 649.83,652.98 617.74,691.40 580.48,735.29 543.22,779.17 497.04,836.46 450.87,893.74 422.23,931.17 393.59,968.59 375.72,992.56 357.86,1016.53 346.39,1033.22 334.92,1049.91 328.45,1059.55 321.98,1069.20 318.70,1074.33 315.43,1079.46 314.05,1081.86 312.66,1084.26 312.18,1084.92 311.70,1085.57 311.59,1085.72 311.47,1085.87 311.33,1085.99 311.18,1086.11 311.01,1086.19 310.84,1086.28 310.66,1086.31 310.47,1086.35 310.28,1086.34 310.09,1086.34 309.91,1086.28 309.73,1086.23 309.57,1086.14 309.40,1086.04 309.27,1085.91 309.13,1085.78 309.03,1085.62 308.93,1085.46 308.87,1085.28 308.81,1085.11 308.79,1084.92 308.78,1084.73 308.81,1084.54 308.84,1084.36 308.91,1084.18 308.98,1084.01 311.65,1078.92 314.31,1073.84 324.65,1061.89 335.00,1049.95 351.32,1033.53 367.63,1017.11 390.39,995.57 413.15,974.03 434.61,955.41 456.07,936.78 478.57,918.40 501.07,900.02 517.62,887.13 534.17,874.24 547.25,864.02 560.34,853.80 569.58,846.55 578.83,839.29 585.04,834.25 591.25,829.22 596.09,825.50 600.93,821.78 605.66,818.17 610.39,814.56 616.43,810.46 622.46,806.36 629.55,801.96 636.63,797.56 645.83,792.78 655.02,788.01 662.37,784.62 669.71,781.23 674.58,778.91 679.46,776.59 682.67,775.34 685.89,774.09 687.75,773.50 689.61,772.91 690.58,772.57 691.56,772.23 691.76,772.20 691.95,772.17 692.15,772.19 692.35,772.20 692.54,772.27 692.73,772.33 692.90,772.44 693.07,772.55 693.21,772.69 693.34,772.84 693.44,773.01 693.54,773.18 693.60,773.37 693.65,773.57 693.66,773.77 693.67,773.97 693.63,774.16 693.59,774.36 693.50,774.54 693.41,774.72 693.29,774.87 693.16,775.03 693.00,775.15 692.84,775.27 692.66,775.34 692.47,775.42 687.32,782.43 682.17,789.44 669.65,800.94 657.13,812.43 636.94,830.92 616.75,849.41 590.73,874.69 564.71,899.97 528.81,938.22 492.91,976.47 468.45,1003.57 443.99,1030.67 428.60,1048.92 413.21,1067.18 402.47,1080.35 391.73,1093.51 386.01,1100.87 380.30,1108.23 377.37,1112.11 374.44,1115.99 373.07,1117.94 371.69,1119.89 370.11,1120.24 368.53,1120.59 366.75,1118.80 364.97,1117.01 363.86,1115.85 362.74,1114.70 362.60,1114.47 362.46,1114.24 362.40,1113.98 362.34,1113.72 362.36,1113.45 362.39,1113.19 362.50,1112.94 362.61,1112.70 362.79,1112.50 362.97,1112.30 363.20,1112.17 363.44,1112.04 363.70,1112.00 363.97,1111.95 364.23,1111.99 364.50,1112.03 364.73,1112.15 364.97,1112.27 365.16,1112.46 365.35,1112.66 365.46,1112.90 365.58,1113.14 365.61,1113.41 365.65,1113.67 365.59,1113.93 365.54,1114.20 365.40,1114.43 365.27,1114.66 365.07,1114.84 364.87,1115.01 364.62,1115.12 364.37,1115.22 364.10,1115.24 363.84,1115.26 363.58,1115.19 363.32,1115.12 363.09,1114.97 362.87,1114.83 362.70,1114.62 362.54,1114.40 362.45,1114.15 362.36,1113.90 362.36,1113.63 362.35,1113.36 362.43,1113.11 362.52,1112.85 362.67,1112.64 362.83,1112.42 363.05,1112.27 363.27,1112.11 363.53,1112.04 363.79,1111.96 364.05,1111.97 364.32,1111.98 364.57,1112.08 364.82,1112.17 365.03,1112.34 365.24,1112.52 365.24,1112.51 365.24,1112.51 366.23,1113.77 367.23,1115.02 368.66,1116.54 370.08,1118.06 371.20,1116.23 372.32,1114.40 375.26,1110.50 378.20,1106.60 383.93,1099.21 389.65,1091.82 400.41,1078.63 411.16,1065.44 426.57,1047.15 441.97,1028.85 466.44,1001.72 490.91,974.59 526.84,936.28 562.77,897.96 588.79,872.63 614.82,847.30 634.98,828.78 655.13,810.26 667.55,798.79 679.96,787.31 685.40,781.88 690.84,776.45 691.20,774.34 691.56,772.23 691.76,772.20 691.95,772.17 692.15,772.19 692.35,772.20 692.54,772.27 692.73,772.33 692.90,772.44 693.07,772.55 693.21,772.69 693.34,772.84 693.44,773.01 693.54,773.18 693.60,773.37 693.65,773.57 693.66,773.77 693.67,773.97 693.63,774.16 693.59,774.36 693.50,774.54 693.41,774.72 693.29,774.87 693.16,775.03 693.00,775.15 692.84,775.27 692.66,775.34 692.47,775.42 691.43,775.53 690.39,775.63 688.61,776.09 686.83,776.54 683.71,777.75 680.59,778.96 675.70,781.29 670.81,783.61 663.52,786.98 656.23,790.34 647.13,795.06 638.02,799.79 630.98,804.16 623.94,808.53 617.96,812.59 611.99,816.65 607.26,820.25 602.53,823.86 597.72,827.56 592.90,831.26 586.68,836.31 580.45,841.35 571.20,848.61 561.96,855.87 548.87,866.09 535.79,876.31 519.26,889.18 502.73,902.06 480.26,920.41 457.79,938.77 436.37,957.35 414.95,975.94 392.23,997.45 369.50,1018.96 353.24,1035.32 336.99,1051.67 326.82,1063.35 316.66,1075.02 314.18,1080.30 311.70,1085.57 311.59,1085.72 311.47,1085.87 311.33,1085.99 311.18,1086.11 311.01,1086.19 310.84,1086.28 310.66,1086.31 310.47,1086.35 310.28,1086.34 310.09,1086.34 309.91,1086.28 309.73,1086.23 309.57,1086.14 309.40,1086.04 309.27,1085.91 309.13,1085.78 309.03,1085.62 308.93,1085.46 308.87,1085.29 308.81,1085.11 308.79,1084.92 308.78,1084.73 308.81,1084.54 308.84,1084.36 308.91,1084.18 308.98,1084.01 309.69,1083.47 310.39,1082.93 311.80,1080.48 313.20,1078.04 316.49,1072.88 319.78,1067.72 326.25,1058.06 332.72,1048.41 344.22,1031.67 355.71,1014.94 373.58,990.95 391.46,966.96 420.11,929.50 448.76,892.04 494.94,834.72 541.13,777.40 578.36,733.51 615.60,689.61 647.67,651.17 679.73,612.73 712.99,572.93 746.24,533.12 763.88,511.75 781.51,490.37 790.29,478.84 799.07,467.31 801.74,462.86 804.40,458.41 803.59,459.24 802.77,460.07 799.21,462.43 795.65,464.79 788.30,470.39 780.95,475.99 766.22,487.82 751.48,499.65 731.30,516.75 711.12,533.85 680.07,559.77 649.02,585.69 605.85,622.36 562.68,659.02 519.23,697.71 475.78,736.39 424.91,783.12 374.05,829.85 342.71,861.81 311.37,893.77 289.53,916.96 267.70,940.15 256.73,954.21 245.76,968.28 242.86,974.44 239.96,980.60 239.96,982.86 239.96,985.12 239.80,985.26 239.65,985.40 239.47,985.49 239.29,985.59 239.09,985.64 238.89,985.69 238.68,985.69 238.48,985.69 238.28,985.65 238.08,985.60 237.90,985.50 237.71,985.41 237.56,985.27 237.40,985.14 237.29,984.97 237.17,984.80 237.09,984.61 237.02,984.42 236.99,984.22 236.97,984.01 236.99,983.81 237.02,983.60 237.09,983.41 237.16,983.22 237.27,983.05 237.39,982.88 237.87,982.68 238.34,982.48 239.32,981.54 240.30,980.60 241.99,978.01 243.69,975.43 247.11,970.46 250.53,965.50 257.29,956.45 264.06,947.40 275.21,932.39 286.36,917.38 302.34,896.32 318.32,875.25 343.73,843.36 369.13,811.46 397.62,776.61 426.11,741.77 462.51,699.15 498.91,656.52 533.55,618.17 568.18,579.82 598.02,548.96 627.86,518.11 652.93,493.99 677.99,469.88 699.75,448.85 721.51,427.82 731.11,418.69 740.71,409.56 743.77,404.82 746.83,400.08 745.06,400.90 743.29,401.72 739.65,403.73 736.01,405.74 728.50,410.52 720.98,415.30 707.45,424.45 693.92,433.60 671.82,449.77 649.71,465.95 620.49,488.50 591.26,511.05 551.63,543.77 512.00,576.48 459.08,622.47 406.15,668.46 337.45,732.95 268.76,797.45 227.68,840.78 186.60,884.10 155.98,918.05 125.36,952.00 110.80,968.71 96.25,985.41 89.55,994.24 82.85,1003.06 82.74,1006.74 82.63,1010.42 82.50,1010.55 82.37,1010.68 82.20,1010.78 82.04,1010.87 81.86,1010.93 81.68,1010.98 81.50,1010.99 81.31,1011.00 81.12,1010.97 80.94,1010.93 80.77,1010.85 80.60,1010.78 80.45,1010.66 80.30,1010.54 80.19,1010.39 80.07,1010.24 80.00,1010.07 79.92,1009.90 79.89,1009.72 79.86,1009.53 79.87,1009.34 79.88,1009.16 79.94,1008.98 80.00,1008.80 80.10,1008.64 80.19,1008.48 80.95,1008.18 81.71,1007.87 83.20,1005.99 84.69,1004.12 87.78,999.56 90.86,995.01 97.55,985.43 104.23,975.85 116.96,957.70 129.69,939.55 146.99,916.19 164.29,892.83 191.16,858.77 218.03,824.70 255.00,778.99 291.97,733.29 333.15,685.77 374.33,638.25 412.80,594.33 451.28,550.41 491.06,504.88 530.85,459.35 562.27,424.16 593.69,388.97 612.75,366.68 631.81,344.40 638.35,335.92 644.88,327.44 643.52,327.97 642.15,328.50 639.51,330.01 636.88,331.53 631.69,335.14 626.50,338.75 616.84,346.03 607.18,353.31 591.74,365.68 576.30,378.05 554.23,396.00 532.16,413.95 500.41,440.48 468.66,467.01 423.28,506.76 377.91,546.51 326.48,595.00 275.05,643.50 219.95,699.19 164.85,754.89 143.95,778.76 123.04,802.63 107.93,820.69 92.83,838.75 87.50,846.57 82.16,854.39 82.37,856.72 82.57,859.04 82.46,859.19 82.35,859.34 82.20,859.46 82.06,859.58 81.89,859.66 81.72,859.74 81.53,859.78 81.35,859.81 81.16,859.81 80.98,859.80 80.80,859.75 80.62,859.69 80.45,859.60 80.29,859.50 80.16,859.37 80.02,859.24 79.92,859.08 79.82,858.93 79.76,858.75 79.70,858.57 79.69,858.38 79.68,858.20 79.71,858.01 79.74,857.83 79.81,857.65 79.88,857.48 80.45,856.96 81.01,856.44 82.10,854.57 83.19,852.69 85.18,849.41 87.17,846.12 91.29,839.50 95.41,832.87 103.79,820.57 112.17,808.26 124.34,791.74 136.50,775.23 153.65,753.06 170.79,730.90 194.88,701.03 218.97,671.16 252.97,630.22 286.97,589.29 322.77,547.39 358.56,505.49 392.65,466.04 426.73,426.58 456.77,392.91 486.81,359.24 509.08,333.66 531.35,308.09 545.82,292.20 560.30,276.31 567.39,267.50 574.48,258.68 576.02,255.59 577.57,252.51 577.92,251.08 578.28,249.66 576.94,250.03 575.59,250.41 572.99,251.56 570.39,252.72 565.30,255.47 560.21,258.23 550.65,264.11 541.09,269.99 525.45,280.78 509.82,291.57 488.10,307.89 466.39,324.21 434.26,350.20 402.12,376.20 355.02,416.71 307.93,457.23 270.98,490.20 234.03,523.18 199.84,554.81 165.64,586.44 135.23,615.75 104.83,645.06 78.38,672.20 51.93,699.35 33.13,719.72 14.34,740.10 3.63,753.02 -7.07,765.94 -11.11,772.14 -15.14,778.34 -14.80,780.27 -14.47,782.20 -14.60,782.33 -14.74,782.46 -14.90,782.56 -15.07,782.65 -15.25,782.70 -15.43,782.76 -15.62,782.77 -15.81,782.78 -15.99,782.74 -16.18,782.70 -16.35,782.62 -16.52,782.54 -16.67,782.42 -16.81,782.30 -16.93,782.15 -17.04,782.00 -17.12,781.83 -17.19,781.66 -17.22,781.47 -17.25,781.28 -17.24,781.10 -17.22,780.91 -17.17,780.73 -17.11,780.55 -17.01,780.39 -16.91,780.23 -15.79,779.48 -14.68,778.74 -12.28,775.77 -9.87,772.79 -4.82,766.95 0.22,761.10 8.98,750.51 17.74,739.92 31.49,723.69 45.23,707.46 63.63,685.51 82.02,663.57 108.69,632.13 135.36,600.69 165.20,565.56 195.04,530.43 235.05,485.40 275.06,440.37 314.56,396.34 354.06,352.31 388.68,314.59 423.30,276.88 459.68,239.92 496.06,202.96 515.35,184.44 534.63,165.92 544.93,155.97 555.23,146.03 559.59,141.64 563.96,137.25 564.42,136.06 564.88,134.86 564.56,133.56 564.24,132.27 561.95,133.41 559.65,134.54 555.26,137.28 550.87,140.01 542.28,145.90 533.69,151.80 518.41,162.86 503.13,173.91 479.72,191.32 456.31,208.73 416.56,239.45 376.81,270.18 325.90,310.52 274.98,350.86 230.03,387.65 185.08,424.45 135.96,465.17 86.83,505.89 45.19,541.39 3.55,576.89 -26.69,603.94 -56.93,630.99 -68.93,642.57 -80.92,654.14 -83.44,658.06 -85.95,661.97 -85.08,660.15 -84.22,658.32 -80.90,654.32 -77.58,650.31 -71.54,643.23 -65.49,636.16 -54.85,623.76 -44.20,611.35 -28.43,592.27 -12.65,573.18 7.07,549.19 26.80,525.19 54.04,493.19 81.28,461.19 114.36,420.98 147.43,380.76 185.20,336.03 222.96,291.29 257.18,255.73 291.39,220.17 312.46,199.63 333.53,179.09 349.44,165.95 365.35,152.80 377.08,143.65 388.82,134.50 395.58,129.21 402.35,123.92 404.44,122.11 406.54,120.31 407.12,118.57 407.71,116.83 407.88,116.77 408.05,116.70 408.23,116.68 408.41,116.66 408.59,116.69 408.77,116.71 408.94,116.78 409.11,116.84 409.26,116.95 409.41,117.05 409.53,117.19 409.65,117.33 409.74,117.49 409.82,117.65 409.86,117.83 409.90,118.01 409.90,118.19 409.90,118.37 409.86,118.55 409.81,118.73 409.72,118.89 409.64,119.05 409.52,119.18 409.39,119.32 409.24,119.42 409.09,119.52 407.51,119.78 405.93,120.03 402.36,121.86 398.80,123.69 391.46,128.02 384.13,132.35 370.98,141.11 357.83,149.86 336.34,165.20 314.84,180.55 286.23,202.68 257.63,224.81 219.85,255.00 182.07,285.19 135.23,324.83 88.40,364.46 43.04,403.98 -2.31,443.50 -40.61,479.83 -78.91,516.16 -95.38,532.89 -111.85,549.63 -119.75,558.12 -127.65,566.62 -129.11,568.43 -130.57,570.23 -130.67,570.36 -130.77,570.48 -130.90,570.57 -131.02,570.67 -131.17,570.73 -131.31,570.79 -131.47,570.82 -131.63,570.85 -131.78,570.83 -131.94,570.82 -132.09,570.77 -132.24,570.72 -132.38,570.64 -132.51,570.55 -132.62,570.44 -132.73,570.33 -132.81,570.19 -132.89,570.05 -132.93,569.90 -132.98,569.75 -132.99,569.59 -132.99,569.43 -132.96,569.28 -132.93,569.12 -132.86,568.98 -132.79,568.84 -131.77,566.73 -130.74,564.62 -128.31,560.76 -125.88,556.90 -120.73,548.93 -115.58,540.96 -104.79,525.48 -94.00,510.01 -78.46,488.74 -62.92,467.48 -41.90,440.27 -20.87,413.07 8.81,375.82 38.51,338.56 76.49,290.86 114.47,243.16 149.18,200.62 183.89,158.08 219.27,116.18 254.66,74.27 281.46,43.54 308.25,12.81 323.46,-2.80 338.67,-18.41 350.13,-29.50 361.58,-40.58 367.81,-45.98 374.05,-51.37 377.35,-54.52 380.65,-57.67 382.38,-60.00 384.12,-62.34 384.30,-62.40 384.48,-62.45 384.66,-62.47 384.85,-62.49 385.04,-62.45 385.22,-62.42 385.39,-62.35 385.57,-62.28 385.72,-62.17 385.87,-62.05 385.98,-61.91 386.10,-61.76 386.18,-61.59 386.26,-61.42 386.30,-61.24 386.34,-61.06 386.33,-60.87 386.32,-60.68 386.27,-60.50 386.22,-60.32 386.13,-60.16 386.03,-60.00 385.90,-59.86 385.77,-59.73 385.61,-59.63 385.46,-59.53 384.05,-59.44 382.63,-59.35 379.50,-57.86 376.37,-56.38 370.02,-52.84 363.67,-49.30 351.17,-41.59 338.67,-33.88 318.28,-19.07 297.88,-4.26 269.82,18.19 241.76,40.65 202.44,74.66 163.11,108.67 113.67,154.71 64.22,200.74 0.32,261.92 -63.56,323.10 -130.12,389.52 -196.69,455.94 -234.39,493.31 -272.09,530.69 -296.73,556.46 -321.37,582.23 -331.77,593.35 -342.16,604.47 -345.83,608.35 -349.50,612.23 -349.71,613.46 -349.91,614.69 -350.05,614.83 -350.18,614.97 -350.35,615.07 -350.51,615.18 -350.70,615.24 -350.88,615.30 -351.08,615.32 -351.27,615.33 -351.46,615.30 -351.65,615.27 -351.83,615.20 -352.01,615.12 -352.17,615.00 -352.32,614.89 -352.45,614.74 -352.57,614.58 -352.65,614.41 -352.74,614.23 -352.78,614.04 -352.82,613.85 -352.81,613.66 -352.80,613.46 -352.75,613.28 -352.69,613.09 -352.60,612.92 -352.50,612.75 -351.92,612.37 -351.34,611.99 -350.12,610.44 -348.89,608.88 -346.17,605.81 -343.46,602.74 -338.19,596.63 -332.91,590.51 -323.26,578.86 -313.62,567.21 -297.88,548.46 -282.15,529.72 -261.10,505.03 -240.05,480.35 -211.11,445.22 -182.16,410.09 -144.26,365.02 -106.35,319.94 -64.80,273.91 -23.24,227.87 16.11,185.49 55.46,143.11 104.73,91.83 154.00,40.55 164.39,31.11 174.78,21.68 184.48,12.89 194.17,4.10 197.62,0.28 201.07,-3.52 201.22,-3.56 201.37,-3.60 201.53,-3.61 201.69,-3.61 201.84,-3.58 202.00,-3.55 202.14,-3.48 202.28,-3.41 202.40,-3.31 202.53,-3.20 202.62,-3.08 202.71,-2.95 202.77,-2.80 202.84,-2.66 202.86,-2.50 202.88,-2.34 202.87,-2.19 202.85,-2.03 202.80,-1.88 202.75,-1.73 202.66,-1.60 202.58,-1.46 202.46,-1.35 202.35,-1.25 202.21,-1.17 202.07,-1.09 198.44,0.21 194.81,1.52 187.41,4.58 180.01,7.64 167.93,13.51 155.85,19.38 136.75,29.70 117.64,40.03 92.01,55.64 66.37,71.25 32.83,93.58 -0.71,115.91 -45.90,149.28 -91.10,182.65 -138.56,219.62 -186.02,256.60 -229.20,293.60 -272.37,330.59 -318.11,371.98 -363.85,413.37 -403.65,452.39 -443.44,491.41 -453.27,501.09 -463.10,510.76 -471.62,520.26 -480.15,529.75 -482.62,532.30 -485.09,534.85 -485.22,534.97 -485.35,535.10 -485.51,535.19 -485.66,535.28 -485.83,535.33 -486.01,535.38 -486.19,535.39 -486.37,535.40 -486.54,535.37 -486.72,535.33 -486.88,535.26 -487.04,535.18 -487.18,535.07 -487.32,534.96 -487.43,534.81 -487.54,534.67 -487.61,534.51 -487.69,534.34 -487.72,534.16 -487.75,533.99 -487.73,533.81 -487.72,533.63 -487.66,533.46 -487.61,533.29 -487.51,533.13 -487.42,532.98 -487.09,532.65 -486.77,532.33 -485.03,530.16 -483.28,528.00 -479.23,523.52 -475.18,519.04 -466.87,510.31 -458.56,501.59 -445.81,488.02 -433.06,474.46 -414.89,455.29 -396.73,436.12 -370.77,408.63 -344.82,381.14 -307.90,344.38 -270.99,307.62 -231.86,270.49 -192.74,233.36 -145.21,190.51 -97.69,147.65 -67.33,121.91 -36.98,96.16 -8.47,73.61 20.04,51.06 34.27,40.82 48.51,30.58 57.72,24.73 66.93,18.87 71.38,17.19 75.83,15.50 77.45,15.59 79.07,15.68 79.26,15.65 79.44,15.62 79.63,15.64 79.82,15.65 80.00,15.72 80.18,15.78 80.34,15.88 80.50,15.98 80.63,16.12 80.76,16.26 80.85,16.42 80.95,16.59 81.00,16.77 81.05,16.96 81.05,17.15 81.06,17.34 81.02,17.52 80.98,17.71 80.90,17.88 80.81,18.05 80.69,18.19 80.57,18.34 80.42,18.45 80.27,18.56 80.09,18.64 79.92,18.71 78.95,18.91 77.98,19.11 75.30,19.85 72.63,20.60 67.37,22.38 62.12,24.16 52.33,27.65 42.55,31.15 26.40,37.85 10.25,44.55 -12.08,55.39 -34.42,66.23 -65.83,82.73 -97.24,99.22 -138.91,123.64 -180.58,148.06 -222.84,176.02 -265.11,203.98 -303.99,231.70 -342.87,259.43 -376.60,285.58 -410.33,311.73 -425.86,324.61 -441.39,337.49 -451.14,346.06 -460.89,354.63 -466.03,358.90 -471.17,363.18 -474.81,366.28 -478.46,369.39 -480.66,371.03 -482.87,372.68 -484.78,373.83 -486.70,374.98 -489.17,374.89 -491.64,374.81 -491.79,373.18 -491.94,371.55 -490.54,370.26 -489.15,368.97 -486.19,366.66 -483.23,364.34 -477.42,360.01 -471.62,355.69 -461.44,348.36 -451.27,341.03 -436.76,329.80 -422.25,318.57 -399.36,300.75 -376.46,282.92 -349.56,261.38 -322.67,239.83 -286.55,211.20 -250.43,182.57 -213.91,153.99 -177.38,125.42 -143.26,99.91 -109.14,74.39 -83.24,55.15 -57.34,35.90 -36.65,21.93 -15.97,7.96 -11.62,5.08 -7.28,2.21 -4.01,0.41 -0.73,-1.37 -0.56,-1.44 -0.38,-1.51 -0.20,-1.53 -0.01,-1.56 0.17,-1.54 0.36,-1.52 0.53,-1.45 0.71,-1.38 0.86,-1.28 1.02,-1.17 1.15,-1.03 1.27,-0.89 1.36,-0.73 1.45,-0.56 1.50,-0.38 1.54,-0.20 1.55,-0.01 1.55,0.17 1.50,0.35 1.46,0.54 1.37,0.70 1.29,0.87 1.16,1.01 1.04,1.15 0.89,1.26 0.73,1.37 0.73,1.37 L 0.73,1.37 Z"></path></g></svg>